<mxfile host="app.diagrams.net" modified="2022-05-04T03:29:16.086Z" agent="5.0 (Windows NT 10.0; Win64; x64) AppleWebKit/537.36 (KHTML, like Gecko) Chrome/100.0.4896.127 Safari/537.36" etag="AVfXnyZbP6TDtG4nqPhy" version="17.5.0" type="github">
  <diagram id="j_6UDLi3RJ-b9BGbpyXK" name="第 1 页">
    <mxGraphModel dx="823" dy="459" grid="1" gridSize="10" guides="1" tooltips="1" connect="1" arrows="1" fold="1" page="1" pageScale="1" pageWidth="827" pageHeight="1169" math="0" shadow="0">
      <root>
        <mxCell id="0" />
        <mxCell id="1" parent="0" />
        <mxCell id="iRqlwemfsiqbd64B7ARf-17" value="" style="group" vertex="1" connectable="0" parent="1">
          <mxGeometry x="90" y="70" width="260" height="280" as="geometry" />
        </mxCell>
        <mxCell id="iRqlwemfsiqbd64B7ARf-2" value="&lt;font style=&quot;font-size: 15px&quot;&gt;3x3,&amp;nbsp; 64&lt;/font&gt;" style="rounded=0;whiteSpace=wrap;html=1;" vertex="1" parent="iRqlwemfsiqbd64B7ARf-17">
          <mxGeometry x="75" y="60" width="130" height="30" as="geometry" />
        </mxCell>
        <mxCell id="iRqlwemfsiqbd64B7ARf-3" value="&lt;span style=&quot;color: rgba(0 , 0 , 0 , 0) ; font-family: monospace ; font-size: 0px&quot;&gt;%3CmxGraphModel%3E%3Croot%3E%3CmxCell%20id%3D%220%22%2F%3E%3CmxCell%20id%3D%221%22%20parent%3D%220%22%2F%3E%3CmxCell%20id%3D%222%22%20value%3D%22%26lt%3Bfont%20style%3D%26quot%3Bfont-size%3A%2015px%26quot%3B%26gt%3Bstride%3A%201%26lt%3B%2Ffont%26gt%3B%22%20style%3D%22text%3Bhtml%3D1%3BstrokeColor%3Dnone%3BfillColor%3Dnone%3Balign%3Dcenter%3BverticalAlign%3Dmiddle%3BwhiteSpace%3Dwrap%3Brounded%3D0%3B%22%20vertex%3D%221%22%20parent%3D%221%22%3E%3CmxGeometry%20x%3D%22400%22%20y%3D%22110%22%20width%3D%2260%22%20height%3D%2230%22%20as%3D%22geometry%22%2F%3E%3C%2FmxCell%3E%3C%2Froot%3E%3C%2FmxGraphModel%3E&lt;/span&gt;&lt;span style=&quot;color: rgba(0 , 0 , 0 , 0) ; font-family: monospace ; font-size: 0px&quot;&gt;%3CmxGraphModel%3E%3Croot%3E%3CmxCell%20id%3D%220%22%2F%3E%3CmxCell%20id%3D%221%22%20parent%3D%220%22%2F%3E%3CmxCell%20id%3D%222%22%20value%3D%22%26lt%3Bfont%20style%3D%26quot%3Bfont-size%3A%2015px%26quot%3B%26gt%3Bstride%3A%201%26lt%3B%2Ffont%26gt%3B%22%20style%3D%22text%3Bhtml%3D1%3BstrokeColor%3Dnone%3BfillColor%3Dnone%3Balign%3Dcenter%3BverticalAlign%3Dmiddle%3BwhiteSpace%3Dwrap%3Brounded%3D0%3B%22%20vertex%3D%221%22%20parent%3D%221%22%3E%3CmxGeometry%20x%3D%22400%22%20y%3D%22110%22%20width%3D%2260%22%20height%3D%2230%22%20as%3D%22geometry%22%2F%3E%3C%2FmxCell%3E%3C%2Froot%3E%3C%2FmxGraphModel%3E&lt;/span&gt;" style="shape=orEllipse;perimeter=ellipsePerimeter;whiteSpace=wrap;html=1;backgroundOutline=1;" vertex="1" parent="iRqlwemfsiqbd64B7ARf-17">
          <mxGeometry x="125" y="200" width="30" height="30" as="geometry" />
        </mxCell>
        <mxCell id="iRqlwemfsiqbd64B7ARf-4" value="&lt;font style=&quot;font-size: 15px&quot;&gt;stride: 1&lt;/font&gt;" style="text;html=1;strokeColor=none;fillColor=none;align=center;verticalAlign=middle;whiteSpace=wrap;rounded=0;" vertex="1" parent="iRqlwemfsiqbd64B7ARf-17">
          <mxGeometry y="30" width="60" height="30" as="geometry" />
        </mxCell>
        <mxCell id="iRqlwemfsiqbd64B7ARf-10" value="" style="edgeStyle=orthogonalEdgeStyle;rounded=0;orthogonalLoop=1;jettySize=auto;html=1;fontSize=15;" edge="1" parent="iRqlwemfsiqbd64B7ARf-17" source="iRqlwemfsiqbd64B7ARf-5" target="iRqlwemfsiqbd64B7ARf-3">
          <mxGeometry relative="1" as="geometry" />
        </mxCell>
        <mxCell id="iRqlwemfsiqbd64B7ARf-5" value="&lt;font style=&quot;font-size: 15px&quot;&gt;3x3,&amp;nbsp; 64&lt;/font&gt;" style="rounded=0;whiteSpace=wrap;html=1;" vertex="1" parent="iRqlwemfsiqbd64B7ARf-17">
          <mxGeometry x="75" y="130" width="130" height="30" as="geometry" />
        </mxCell>
        <mxCell id="iRqlwemfsiqbd64B7ARf-9" value="" style="edgeStyle=orthogonalEdgeStyle;rounded=0;orthogonalLoop=1;jettySize=auto;html=1;fontSize=15;" edge="1" parent="iRqlwemfsiqbd64B7ARf-17" source="iRqlwemfsiqbd64B7ARf-2" target="iRqlwemfsiqbd64B7ARf-5">
          <mxGeometry relative="1" as="geometry" />
        </mxCell>
        <mxCell id="iRqlwemfsiqbd64B7ARf-6" value="&lt;font style=&quot;font-size: 15px&quot;&gt;stride: 1&lt;/font&gt;" style="text;html=1;strokeColor=none;fillColor=none;align=center;verticalAlign=middle;whiteSpace=wrap;rounded=0;" vertex="1" parent="iRqlwemfsiqbd64B7ARf-17">
          <mxGeometry y="100" width="60" height="30" as="geometry" />
        </mxCell>
        <mxCell id="iRqlwemfsiqbd64B7ARf-7" value="" style="endArrow=classic;html=1;rounded=0;fontSize=15;entryX=0.5;entryY=0;entryDx=0;entryDy=0;" edge="1" parent="iRqlwemfsiqbd64B7ARf-17" target="iRqlwemfsiqbd64B7ARf-2">
          <mxGeometry width="50" height="50" relative="1" as="geometry">
            <mxPoint x="140" as="sourcePoint" />
            <mxPoint x="170" y="100" as="targetPoint" />
          </mxGeometry>
        </mxCell>
        <mxCell id="iRqlwemfsiqbd64B7ARf-11" value="" style="endArrow=classic;html=1;rounded=0;fontSize=15;exitX=0.5;exitY=1;exitDx=0;exitDy=0;" edge="1" parent="iRqlwemfsiqbd64B7ARf-17" source="iRqlwemfsiqbd64B7ARf-3">
          <mxGeometry width="50" height="50" relative="1" as="geometry">
            <mxPoint x="155" y="240" as="sourcePoint" />
            <mxPoint x="140" y="280" as="targetPoint" />
          </mxGeometry>
        </mxCell>
        <mxCell id="iRqlwemfsiqbd64B7ARf-12" value="64-d" style="text;html=1;strokeColor=none;fillColor=none;align=center;verticalAlign=middle;whiteSpace=wrap;rounded=0;fontSize=15;" vertex="1" parent="iRqlwemfsiqbd64B7ARf-17">
          <mxGeometry x="154" width="60" height="30" as="geometry" />
        </mxCell>
        <mxCell id="iRqlwemfsiqbd64B7ARf-13" value="" style="endArrow=none;html=1;rounded=0;fontSize=15;endFill=0;" edge="1" parent="iRqlwemfsiqbd64B7ARf-17">
          <mxGeometry width="50" height="50" relative="1" as="geometry">
            <mxPoint x="140" y="40" as="sourcePoint" />
            <mxPoint x="260" y="40" as="targetPoint" />
          </mxGeometry>
        </mxCell>
        <mxCell id="iRqlwemfsiqbd64B7ARf-14" value="" style="endArrow=none;html=1;rounded=0;fontSize=15;" edge="1" parent="iRqlwemfsiqbd64B7ARf-17">
          <mxGeometry width="50" height="50" relative="1" as="geometry">
            <mxPoint x="260" y="215" as="sourcePoint" />
            <mxPoint x="260" y="40" as="targetPoint" />
          </mxGeometry>
        </mxCell>
        <mxCell id="iRqlwemfsiqbd64B7ARf-15" value="" style="endArrow=classic;html=1;rounded=0;fontSize=15;entryX=1;entryY=0.5;entryDx=0;entryDy=0;" edge="1" parent="iRqlwemfsiqbd64B7ARf-17" target="iRqlwemfsiqbd64B7ARf-3">
          <mxGeometry width="50" height="50" relative="1" as="geometry">
            <mxPoint x="260" y="215" as="sourcePoint" />
            <mxPoint x="255" y="260" as="targetPoint" />
          </mxGeometry>
        </mxCell>
        <mxCell id="iRqlwemfsiqbd64B7ARf-16" value="Relu" style="text;html=1;strokeColor=none;fillColor=none;align=center;verticalAlign=middle;whiteSpace=wrap;rounded=0;fontSize=15;" vertex="1" parent="iRqlwemfsiqbd64B7ARf-17">
          <mxGeometry x="155" y="240" width="60" height="30" as="geometry" />
        </mxCell>
        <mxCell id="iRqlwemfsiqbd64B7ARf-38" style="edgeStyle=orthogonalEdgeStyle;rounded=0;orthogonalLoop=1;jettySize=auto;html=1;exitX=0.5;exitY=1;exitDx=0;exitDy=0;fontSize=15;endArrow=classic;endFill=1;" edge="1" parent="1" source="iRqlwemfsiqbd64B7ARf-19" target="iRqlwemfsiqbd64B7ARf-20">
          <mxGeometry relative="1" as="geometry" />
        </mxCell>
        <mxCell id="iRqlwemfsiqbd64B7ARf-19" value="&lt;font style=&quot;font-size: 15px&quot;&gt;3x3,&amp;nbsp; 128&lt;/font&gt;" style="rounded=0;whiteSpace=wrap;html=1;" vertex="1" parent="1">
          <mxGeometry x="470" y="130" width="130" height="30" as="geometry" />
        </mxCell>
        <mxCell id="iRqlwemfsiqbd64B7ARf-41" value="" style="edgeStyle=orthogonalEdgeStyle;rounded=0;orthogonalLoop=1;jettySize=auto;html=1;fontSize=15;endArrow=classic;endFill=1;" edge="1" parent="1" source="iRqlwemfsiqbd64B7ARf-20" target="iRqlwemfsiqbd64B7ARf-40">
          <mxGeometry relative="1" as="geometry" />
        </mxCell>
        <mxCell id="iRqlwemfsiqbd64B7ARf-20" value="&lt;font style=&quot;font-size: 15px&quot;&gt;3x3,&amp;nbsp; 128&lt;/font&gt;" style="rounded=0;whiteSpace=wrap;html=1;" vertex="1" parent="1">
          <mxGeometry x="470" y="200" width="130" height="30" as="geometry" />
        </mxCell>
        <mxCell id="iRqlwemfsiqbd64B7ARf-21" value="&lt;font style=&quot;font-size: 15px&quot;&gt;stride: 2&lt;/font&gt;" style="text;html=1;strokeColor=none;fillColor=none;align=center;verticalAlign=middle;whiteSpace=wrap;rounded=0;" vertex="1" parent="1">
          <mxGeometry x="400" y="110" width="60" height="30" as="geometry" />
        </mxCell>
        <mxCell id="iRqlwemfsiqbd64B7ARf-37" value="&lt;font style=&quot;font-size: 15px&quot;&gt;stride: 1&lt;/font&gt;" style="text;html=1;strokeColor=none;fillColor=none;align=center;verticalAlign=middle;whiteSpace=wrap;rounded=0;" vertex="1" parent="1">
          <mxGeometry x="400" y="180" width="60" height="30" as="geometry" />
        </mxCell>
        <mxCell id="iRqlwemfsiqbd64B7ARf-40" value="" style="shape=orEllipse;perimeter=ellipsePerimeter;whiteSpace=wrap;html=1;backgroundOutline=1;fontSize=15;" vertex="1" parent="1">
          <mxGeometry x="520" y="270" width="30" height="30" as="geometry" />
        </mxCell>
        <mxCell id="iRqlwemfsiqbd64B7ARf-42" value="" style="endArrow=classic;html=1;rounded=0;fontSize=15;exitX=0.5;exitY=1;exitDx=0;exitDy=0;" edge="1" parent="1" source="iRqlwemfsiqbd64B7ARf-40">
          <mxGeometry width="50" height="50" relative="1" as="geometry">
            <mxPoint x="340" y="280" as="sourcePoint" />
            <mxPoint x="535" y="360" as="targetPoint" />
          </mxGeometry>
        </mxCell>
        <mxCell id="iRqlwemfsiqbd64B7ARf-43" value="" style="endArrow=classic;html=1;rounded=0;fontSize=15;entryX=0.5;entryY=0;entryDx=0;entryDy=0;" edge="1" parent="1" target="iRqlwemfsiqbd64B7ARf-19">
          <mxGeometry width="50" height="50" relative="1" as="geometry">
            <mxPoint x="535" y="60" as="sourcePoint" />
            <mxPoint x="390" y="230" as="targetPoint" />
          </mxGeometry>
        </mxCell>
        <mxCell id="iRqlwemfsiqbd64B7ARf-44" value="" style="endArrow=none;dashed=1;html=1;rounded=0;fontSize=15;" edge="1" parent="1">
          <mxGeometry width="50" height="50" relative="1" as="geometry">
            <mxPoint x="540" y="100" as="sourcePoint" />
            <mxPoint x="700" y="100" as="targetPoint" />
          </mxGeometry>
        </mxCell>
        <mxCell id="iRqlwemfsiqbd64B7ARf-46" value="" style="endArrow=classic;html=1;rounded=0;fontSize=15;entryX=1;entryY=0.5;entryDx=0;entryDy=0;dashed=1;" edge="1" parent="1" target="iRqlwemfsiqbd64B7ARf-40">
          <mxGeometry width="50" height="50" relative="1" as="geometry">
            <mxPoint x="700" y="285" as="sourcePoint" />
            <mxPoint x="590" y="270" as="targetPoint" />
          </mxGeometry>
        </mxCell>
        <mxCell id="iRqlwemfsiqbd64B7ARf-47" value="&lt;font style=&quot;font-size: 15px&quot;&gt;1x1,&amp;nbsp; 128&lt;/font&gt;" style="rounded=0;whiteSpace=wrap;html=1;" vertex="1" parent="1">
          <mxGeometry x="640" y="170" width="130" height="30" as="geometry" />
        </mxCell>
        <mxCell id="iRqlwemfsiqbd64B7ARf-48" value="" style="endArrow=classic;html=1;rounded=0;dashed=1;fontSize=15;entryX=0.463;entryY=0.042;entryDx=0;entryDy=0;entryPerimeter=0;" edge="1" parent="1" target="iRqlwemfsiqbd64B7ARf-47">
          <mxGeometry width="50" height="50" relative="1" as="geometry">
            <mxPoint x="700" y="100" as="sourcePoint" />
            <mxPoint x="690" y="180" as="targetPoint" />
          </mxGeometry>
        </mxCell>
        <mxCell id="iRqlwemfsiqbd64B7ARf-49" value="" style="endArrow=classic;html=1;rounded=0;dashed=1;fontSize=15;exitX=0.47;exitY=0.983;exitDx=0;exitDy=0;exitPerimeter=0;" edge="1" parent="1" source="iRqlwemfsiqbd64B7ARf-47">
          <mxGeometry width="50" height="50" relative="1" as="geometry">
            <mxPoint x="699.9299999999998" y="207.28000000000003" as="sourcePoint" />
            <mxPoint x="700" y="285" as="targetPoint" />
          </mxGeometry>
        </mxCell>
        <mxCell id="iRqlwemfsiqbd64B7ARf-50" value="[56, 56, 64]" style="text;html=1;strokeColor=none;fillColor=none;align=center;verticalAlign=middle;whiteSpace=wrap;rounded=0;fontSize=15;" vertex="1" parent="1">
          <mxGeometry x="540" y="60" width="90" height="30" as="geometry" />
        </mxCell>
        <mxCell id="iRqlwemfsiqbd64B7ARf-52" value="28, 28, 128" style="text;html=1;strokeColor=none;fillColor=none;align=center;verticalAlign=middle;whiteSpace=wrap;rounded=0;fontSize=15;" vertex="1" parent="1">
          <mxGeometry x="540" y="350" width="90" height="30" as="geometry" />
        </mxCell>
        <mxCell id="iRqlwemfsiqbd64B7ARf-68" value="Relu" style="text;html=1;strokeColor=none;fillColor=none;align=center;verticalAlign=middle;whiteSpace=wrap;rounded=0;fontSize=15;" vertex="1" parent="1">
          <mxGeometry x="540" y="310" width="60" height="30" as="geometry" />
        </mxCell>
      </root>
    </mxGraphModel>
  </diagram>
</mxfile>
